<svg xmlns="http://www.w3.org/2000/svg" viewBox="0 0 64 64" width="64" height="64" role="img" aria-label="Mada-Brousse">
  <defs>
    <linearGradient id="mb-bg" x1="0" y1="0" x2="1" y2="1">
      <stop offset="0" stop-color="#3a6a1f"/>
      <stop offset="1" stop-color="#2d5016"/>
    </linearGradient>
    <linearGradient id="mb-sun" x1="0" y1="0" x2="1" y2="1">
      <stop offset="0" stop-color="#d97a4f"/>
      <stop offset="1" stop-color="#b5502e"/>
    </linearGradient>
  </defs>

  <rect width="64" height="64" rx="16" fill="url(#mb-bg)"/>

  <!-- soleil levant -->
  <circle cx="32" cy="27" r="9" fill="url(#mb-sun)"/>

  <!-- route en terre laterite -->
  <path d="M2 44 C 16 34, 24 34, 32 40 C 40 46, 48 46, 62 36" stroke="#f9f6f0" stroke-width="3" stroke-linecap="round" stroke-dasharray="1 7" fill="none" opacity=".9"/>
  <path d="M0 50 L64 50 L64 64 L0 64 Z" fill="#20301a"/>

  <!-- silhouette taxi-brousse -->
  <g transform="translate(9,40)">
    <path d="M2 10 L2 6.5 C2 5 3 4 5 3.6 L9 2.6 C10.4 2.2 12 2 14.5 2 L34 2 C37.5 2 39.5 3 41 5 L44 9.2 C45.3 10 46 10.8 46 12 L46 14.5 C46 15.9 45 17 43.5 17 L4 17 C2.6 17 2 15.9 2 14.5 Z" fill="#f9f6f0"/>
    <path d="M15 3.6 L15 9.2 L26 9.2 L26 3.4" fill="none" stroke="#2d5016" stroke-width="1.4"/>
    <rect x="17" y="4.6" width="4.5" height="4.2" rx=".6" fill="#a9d178"/>
    <rect x="22.3" y="4.6" width="4.5" height="4.2" rx=".6" fill="#a9d178"/>
    <circle cx="12" cy="17.5" r="4" fill="#20301a"/>
    <circle cx="12" cy="17.5" r="1.6" fill="#cfcfcf"/>
    <circle cx="36" cy="17.5" r="4" fill="#20301a"/>
    <circle cx="36" cy="17.5" r="1.6" fill="#cfcfcf"/>
  </g>
</svg>
