<svg xmlns="http://www.w3.org/2000/svg" viewBox="0 0 300 700">
  <path fill="#2d5016" d="
    M150 8
    C 168 6 182 22 188 40
    C 196 62 190 82 202 100
    C 214 118 232 128 236 152
    C 240 176 224 190 230 214
    C 236 238 254 252 250 278
    C 246 304 222 312 224 338
    C 226 364 246 376 240 402
    C 234 428 208 434 206 460
    C 204 486 222 500 214 526
    C 206 552 182 558 178 584
    C 174 610 190 624 178 648
    C 168 668 148 676 132 664
    C 116 652 122 630 108 614
    C 94 598 70 596 62 574
    C 54 552 70 534 64 512
    C 58 490 36 480 36 456
    C 36 432 58 420 56 396
    C 54 372 32 360 36 336
    C 40 312 64 302 66 278
    C 68 254 48 240 56 216
    C 64 192 90 184 96 160
    C 102 136 84 118 96 96
    C 108 74 132 66 138 44
    C 142 28 138 10 150 8 Z" />
</svg>
