<svg xmlns="http://www.w3.org/2000/svg" viewBox="0 0 800 300">
  <rect width="800" height="300" fill="#2d5016"/>
  <g fill="#4a7c2e" opacity=".8">
    <rect x="40"  y="60" width="90" height="90" rx="14"/>
    <rect x="160" y="60" width="90" height="90" rx="14"/>
    <rect x="280" y="60" width="90" height="90" rx="14"/>
    <rect x="40"  y="170" width="90" height="90" rx="14"/>
    <rect x="160" y="170" width="90" height="90" rx="14"/>
    <rect x="280" y="170" width="90" height="90" rx="14"/>
  </g>
  <g fill="#6b9e3a" opacity=".7">
    <rect x="430" y="60" width="90" height="90" rx="14"/>
    <rect x="550" y="60" width="90" height="90" rx="14"/>
    <rect x="670" y="60" width="90" height="90" rx="14"/>
    <rect x="430" y="170" width="90" height="90" rx="14"/>
    <rect x="550" y="170" width="90" height="90" rx="14"/>
    <rect x="670" y="170" width="90" height="90" rx="14"/>
  </g>
</svg>
